<svg xmlns="http://www.w3.org/2000/svg" viewBox="0 0 100 100">
  <!-- Simple hexagon background -->
  <path fill="#000" d="M50 10L85 30v40L50 90 15 70V30z"/>
  
  <!-- Clean G -->
  <path fill="#fff" d="M30 35c-5 0-8 3-8 8v14c0 5 3 8 8 8h6c3 0 5-2 5-5v-5h-5v3h2v2h-6c-2 0-3-1-3-3V43c0-2 1-3 3-3h6c2 0 3 1 3 3h3c0-5-3-8-8-8z"/>
  
  <!-- Clean B -->
  <path fill="#fff" d="M50 35v22h8c5 0 8-3 8-8v-1c0-2-1-4-2-5 1-1 2-3 2-5v-1c0-5-3-8-8-8zm3 3h5c2 0 3 1 3 3v1c0 2-1 3-3 3h-5zm0 10h5c2 0 3 1 3 3v1c0 2-1 3-3 3h-5z"/>
  
  <!-- Simple football -->
  <ellipse fill="#fff" cx="68" cy="50" rx="6" ry="4"/>
  <line stroke="#000" stroke-width="0.5" x1="65" y1="50" x2="71" y2="50"/>
  <line stroke="#000" stroke-width="0.3" x1="66" y1="48.5" x2="70" y2="48.5"/>
  <line stroke="#000" stroke-width="0.3" x1="66" y1="51.5" x2="70" y2="51.5"/>
</svg>